<?xml version="1.0" encoding="UTF-8"?><svg id="a" xmlns="http://www.w3.org/2000/svg" viewBox="0 0 404.29 334.22"><path d="m321.07,196.95c1.02,2.88-1.49,2.91-7.53.09-1.36-.62-2.53-1.53-3.49-2.74-2.76-3.44-6.7-5.24-11.81-5.39-9.52-.31-18.03.6-25.53,2.74-4.68,1.33-9.67,2.09-14.97,2.28-5.55.19-10.45,1.91-14.69,5.16-1.77,1.33-3.53,1.33-5.3,0l-106.95-82.12L200.59.72c.59-.96,1.18-.96,1.77,0l118.71,196.23Z" fill="#f15b26"/><path d="m130.79,116.97l106.95,82.12c1.77,1.33,3.53,1.33,5.3,0,4.25-3.25,9.14-4.98,14.69-5.16,5.3-.19,10.29-.95,14.97-2.28,7.5-2.14,16.01-3.05,25.53-2.74,5.11.15,9.05,1.95,11.81,5.39.96,1.21,2.12,2.12,3.49,2.74,6.04,2.82,8.56,2.79,7.53-.09l82.68,133.87c1.05,1.7.57,2.56-1.44,2.56l-134.29-.09c-2.39,0-4.58-1.37-5.63-3.53-17.17-35.34-39.97-65.97-68.4-91.88-5.8-3.19-11.53-6.22-17.2-9.07-20.41-10.32-49.1-10.93-68.87-2.79-25.85,10.69-51.57,29.88-77.14,57.57l100.02-166.61Z" fill="#f27323"/><path d="m193.99,237.87l-58.4,93.74c-.84,1.3-2.03,1.95-3.58,1.95-41.26-.31-82.29-.34-123.08-.09-2.76.03-4.25.08-4.46.14-4.68,1.52-5.67.23-2.98-3.86,10.35-15.9,20.12-31.29,29.29-46.17,25.57-27.68,51.29-46.87,77.14-57.57,19.76-8.14,48.45-7.53,68.87,2.79,5.67,2.85,11.41,5.87,17.2,9.07Z" fill="#7a51a1"/></svg>