<?xml version="1.0" encoding="UTF-8" standalone="no"?>
<svg xmlns="http://www.w3.org/2000/svg" version="1.2" baseProfile="tiny" viewBox="0.00 0.00 424.00 149.00">
<g stroke-width="5.00" fill="none" stroke-linecap="butt">
<path stroke="#f26622" vector-effect="non-scaling-stroke" d="
  M 72.64 68.33
  Q 72.97 69.26 71.02 68.35
  Q 70.58 68.15 70.27 67.76
  Q 69.38 66.65 67.73 66.60
  Q 64.66 66.50 62.24 67.19
  Q 60.73 67.62 59.02 67.68
  Q 57.23 67.74 55.86 68.79
  Q 55.29 69.22 54.72 68.79
  L 31.72 51.13"
/>
<path stroke="#c34688" vector-effect="non-scaling-stroke" d="
  M 45.31 77.13
  Q 43.44 76.10 41.61 75.18
  C 37.22 72.96 31.05 72.83 26.80 74.58
  Q 18.46 78.03 10.21 86.96"
/>
<path stroke="#ac1ad7" vector-effect="non-scaling-stroke" d="
  M 356.96 73.06
  Q 356.56 71.86 355.61 71.74
  Q 355.37 71.70 355.13 71.61
  L 349.13 69.17"
/>
</g>
<path fill="#f15923" d="
  M 72.64 68.33
  Q 72.97 69.26 71.02 68.35
  Q 70.58 68.15 70.27 67.76
  Q 69.38 66.65 67.73 66.60
  Q 64.66 66.50 62.24 67.19
  Q 60.73 67.62 59.02 67.68
  Q 57.23 67.74 55.86 68.79
  Q 55.29 69.22 54.72 68.79
  L 31.72 51.13
  L 46.73 26.13
  Q 46.92 25.82 47.11 26.13
  L 72.64 68.33
  Z"
/>
<path fill="#f5801b" d="
  M 111.31 71.13
  L 128.45 51.60
  A 0.35 0.35 0.0 0 1 128.71 51.48
  L 142.23 51.40
  A 0.35 0.35 0.0 0 1 142.49 51.99
  L 124.32 71.90
  A 0.35 0.35 0.0 0 0 124.31 72.35
  L 144.64 97.94
  A 0.35 0.35 0.0 0 1 144.37 98.50
  L 131.76 98.40
  A 0.35 0.35 0.0 0 1 131.50 98.27
  L 117.02 80.51
  A 0.35 0.35 0.0 0 0 116.49 80.49
  L 110.80 86.83
  A 0.35 0.35 0.0 0 0 110.71 87.07
  L 110.79 98.08
  A 0.35 0.35 0.0 0 1 110.44 98.43
  L 99.09 98.44
  A 0.35 0.35 0.0 0 1 98.74 98.09
  L 98.73 34.59
  A 0.35 0.35 0.0 0 1 99.08 34.24
  L 110.43 34.25
  A 0.35 0.35 0.0 0 1 110.78 34.60
  L 110.69 70.90
  A 0.35 0.35 0.0 0 0 111.31 71.13
  Z"
/>
<path fill="#f5801b" d="
  M 312.66 61.19
  Q 312.74 72.41 312.67 83.11
  C 312.64 87.71 318.00 88.57 321.22 87.30
  Q 322.52 86.79 322.52 88.19
  L 322.50 95.16
  Q 322.50 96.79 320.96 97.34
  C 314.15 99.76 304.87 98.71 301.74 91.38
  Q 300.42 88.29 300.54 81.30
  Q 300.73 70.52 300.62 60.98
  A 0.60 0.60 0.0 0 0 300.01 60.39
  L 295.11 60.49
  Q 293.69 60.52 293.82 59.11
  Q 294.14 55.75 293.83 52.14
  Q 293.70 50.69 295.15 50.74
  L 299.75 50.89
  A 0.89 0.89 0.0 0 0 300.67 50.00
  L 300.58 39.48
  A 0.68 0.68 0.0 0 1 301.26 38.79
  L 312.26 38.79
  Q 312.74 38.79 312.73 39.26
  L 312.67 50.50
  A 0.33 0.32 -90.0 0 0 313.00 50.84
  L 322.18 50.77
  A 0.29 0.28 -0.0 0 1 322.47 51.05
  L 322.48 60.25
  Q 322.48 60.49 322.25 60.49
  L 313.44 60.41
  Q 312.66 60.40 312.66 61.19
  Z"
/>
<path fill="#f5801b" d="
  M 215.58 61.71
  Q 216.02 61.75 216.17 61.29
  Q 220.25 49.31 232.69 50.66
  A 0.65 0.64 3.5 0 1 233.26 51.30
  L 233.26 61.57
  Q 233.26 62.30 232.53 62.24
  Q 219.83 61.17 216.12 71.97
  Q 214.96 75.33 215.23 84.51
  Q 215.42 91.14 215.23 97.96
  Q 215.21 98.44 214.74 98.44
  L 204.00 98.45
  A 0.71 0.70 -0.0 0 1 203.29 97.75
  L 203.29 52.09
  Q 203.29 51.47 203.91 51.47
  L 214.81 51.47
  Q 215.40 51.47 215.38 52.06
  L 215.10 61.16
  Q 215.08 61.66 215.58 61.71
  Z"
/>
<path fill="#f5801b" d="
  M 274.89 55.90
  Q 274.64 54.01 274.63 51.98
  Q 274.62 51.36 275.25 51.36
  L 286.29 51.36
  A 0.44 0.43 0.0 0 1 286.73 51.79
  L 286.72 97.73
  Q 286.72 98.43 286.02 98.43
  L 275.26 98.43
  Q 274.74 98.43 274.71 97.91
  Q 274.55 95.18 275.11 92.67
  A 0.33 0.32 -80.0 0 0 274.84 92.28
  Q 274.50 92.23 274.20 92.36
  Q 273.84 92.52 273.66 92.83
  C 270.77 97.77 262.47 99.80 257.75 99.30
  Q 245.33 97.99 239.53 87.28
  C 235.18 79.25 235.69 67.35 241.17 59.74
  Q 246.18 52.79 254.63 50.97
  C 260.95 49.60 269.27 51.00 273.40 56.50
  Q 275.29 59.02 274.89 55.90
  Z
  M 261.9190 88.7190
  A 13.83 13.43 89.3 0 0 275.1790 74.7259
  A 13.83 13.43 89.3 0 0 261.5810 61.0610
  A 13.83 13.43 89.3 0 0 248.3210 75.0541
  A 13.83 13.43 89.3 0 0 261.9190 88.7190
  Z"
/>
<path fill="#f5801b" d="
  M 181.89 94.59
  Q 182.60 90.62 180.13 93.81
  C 176.48 98.53 169.40 100.10 163.88 99.08
  C 154.81 97.40 149.67 90.12 149.59 81.26
  Q 149.47 66.82 149.52 51.72
  A 0.24 0.24 0.0 0 1 149.76 51.48
  L 161.16 51.44
  A 0.26 0.26 0.0 0 1 161.42 51.70
  Q 161.60 62.42 161.38 73.38
  Q 161.26 79.71 162.41 82.54
  Q 164.68 88.10 170.91 88.57
  C 177.87 89.09 181.80 83.66 181.77 77.22
  Q 181.73 64.42 181.74 52.00
  Q 181.74 51.47 182.27 51.47
  L 193.24 51.47
  Q 193.77 51.47 193.77 51.99
  L 193.75 97.96
  A 0.47 0.46 90.0 0 1 193.29 98.43
  L 182.27 98.43
  Q 181.78 98.43 181.74 97.94
  Q 181.60 96.22 181.89 94.59
  Z"
/>
<path fill="#f27221" d="
  M 31.72 51.13
  L 54.72 68.79
  Q 55.29 69.22 55.86 68.79
  Q 57.23 67.74 59.02 67.68
  Q 60.73 67.62 62.24 67.19
  Q 64.66 66.50 67.73 66.60
  Q 69.38 66.65 70.27 67.76
  Q 70.58 68.15 71.02 68.35
  Q 72.97 69.26 72.64 68.33
  L 90.42 97.12
  Q 90.76 97.67 90.11 97.67
  L 61.23 97.65
  A 1.35 1.34 76.9 0 1 60.02 96.89
  Q 54.48 85.49 45.31 77.13
  Q 43.44 76.10 41.61 75.18
  C 37.22 72.96 31.05 72.83 26.80 74.58
  Q 18.46 78.03 10.21 86.96
  L 31.72 51.13
  Z"
/>
<path fill="#941aee" d="
  M 356.96 73.06
  Q 356.56 71.86 355.61 71.74
  Q 355.37 71.70 355.13 71.61
  L 349.13 69.17
  Q 352.84 64.35 358.01 62.75
  Q 371.15 58.68 379.60 69.99
  Q 379.80 70.26 379.51 70.44
  L 373.40 74.41
  Q 373.17 74.56 372.99 74.35
  Q 365.68 65.82 356.96 73.06
  Z"
/>
<path fill="#941aee" d="
  M 420.0095 80.2312
  A 18.80 18.45 0.4 0 1 401.0812 98.5496
  A 18.80 18.45 0.4 0 1 382.4105 79.9688
  A 18.80 18.45 0.4 0 1 401.3388 61.6504
  A 18.80 18.45 0.4 0 1 420.0095 80.2312
  Z
  M 401.2804 90.4596
  A 10.36 9.85 89.5 0 0 411.0396 80.0140
  A 10.36 9.85 89.5 0 0 401.0996 69.7404
  A 10.36 9.85 89.5 0 0 391.3404 80.1860
  A 10.36 9.85 89.5 0 0 401.2804 90.4596
  Z"
/>
<path fill="#c319bf" d="
  M 349.13 69.17
  L 355.13 71.61
  Q 355.37 71.70 355.61 71.74
  Q 356.56 71.86 356.96 73.06
  Q 352.18 80.11 356.55 86.44
  C 360.47 92.13 369.29 91.42 372.89 85.78
  Q 373.03 85.55 373.26 85.70
  L 379.43 89.67
  Q 379.73 89.86 379.52 90.15
  Q 374.04 97.92 365.90 98.39
  C 354.91 99.03 345.91 91.61 345.74 80.41
  Q 345.64 74.40 349.13 69.17
  Z"
/>
<path fill="#941aee" d="
  M 45.31 77.13
  L 32.75 97.29
  Q 32.48 97.71 31.98 97.71
  Q 18.67 97.61 5.51 97.69
  Q 4.62 97.70 4.55 97.72
  Q 3.04 98.21 3.91 96.89
  Q 7.25 91.76 10.21 86.96
  Q 18.46 78.03 26.80 74.58
  C 31.05 72.83 37.22 72.96 41.61 75.18
  Q 43.44 76.10 45.31 77.13
  Z"
/>
<circle fill="#d91492" cx="336.47" cy="93.28" r="5.21"/>
<path fill="#941aee" d="
  M 224.72 112.84
  L 224.72 117.51
  A 1.97 1.97 0.0 0 0 228.00 118.98
  Q 229.52 117.63 231.62 119.33
  Q 232.21 119.81 231.74 120.40
  C 229.28 123.44 225.61 123.99 222.52 121.20
  Q 221.03 119.86 221.17 117.62
  C 221.36 114.49 220.19 110.37 223.59 108.59
  Q 228.27 106.14 231.81 110.27
  A 0.67 0.67 0.0 0 1 231.58 111.32
  L 229.85 112.11
  Q 229.23 112.39 228.74 111.92
  Q 227.34 110.54 225.49 111.54
  Q 224.72 111.96 224.72 112.84
  Z"
/>
<path fill="#941aee" d="
  M 237.28 111.84
  L 237.26 113.21
  A 0.55 0.55 0.0 0 0 237.82 113.76
  L 242.95 113.70
  A 0.55 0.55 0.0 0 1 243.51 114.25
  L 243.50 116.33
  A 0.55 0.55 0.0 0 1 242.94 116.88
  L 237.87 116.76
  A 0.55 0.55 0.0 0 0 237.30 117.30
  L 237.27 118.67
  A 0.55 0.55 0.0 0 0 237.83 119.24
  L 243.35 119.14
  A 0.55 0.55 0.0 0 1 243.91 119.69
  L 243.89 122.12
  A 0.55 0.55 0.0 0 1 243.34 122.67
  L 234.10 122.68
  A 0.55 0.55 0.0 0 1 233.55 122.13
  L 233.57 108.49
  A 0.55 0.55 0.0 0 1 234.12 107.94
  L 243.32 107.96
  A 0.55 0.55 0.0 0 1 243.87 108.51
  L 243.89 110.82
  A 0.55 0.55 0.0 0 1 243.33 111.37
  L 237.83 111.30
  A 0.55 0.55 0.0 0 0 237.28 111.84
  Z"
/>
<path fill="#c319bf" d="
  M 260.78 120.14
  L 260.19 122.26
  A 0.58 0.58 0.0 0 1 259.64 122.68
  L 256.85 122.76
  A 0.58 0.58 0.0 0 1 256.29 121.98
  L 261.13 108.35
  A 0.58 0.58 0.0 0 1 261.66 107.96
  L 264.11 107.91
  A 0.58 0.58 0.0 0 1 264.67 108.29
  L 269.62 121.99
  A 0.58 0.58 0.0 0 1 269.05 122.76
  L 266.30 122.62
  A 0.58 0.58 0.0 0 1 265.78 122.22
  L 265.11 120.16
  A 0.58 0.58 0.0 0 0 264.56 119.75
  L 261.35 119.72
  A 0.58 0.58 0.0 0 0 260.78 120.14
  Z
  M 262.19 116.47
  L 263.55 116.51
  A 0.29 0.29 0.0 0 0 263.85 116.22
  L 263.85 116.02
  A 3.41 0.94 -88.5 0 0 263.00 112.59
  L 262.94 112.59
  A 3.41 0.94 -88.5 0 0 261.91 115.97
  L 261.91 116.17
  A 0.29 0.29 0.0 0 0 262.19 116.47
  Z"
/>
<path fill="#d91492" d="
  M 276.37 111.97
  L 276.20 122.01
  A 0.69 0.69 0.0 0 1 275.52 122.69
  L 273.22 122.70
  A 0.69 0.69 0.0 0 1 272.52 122.01
  L 272.53 111.92
  A 0.69 0.69 0.0 0 0 271.77 111.23
  L 269.49 111.46
  A 0.69 0.69 0.0 0 1 268.73 110.78
  L 268.70 108.63
  A 0.69 0.69 0.0 0 1 269.39 107.93
  L 279.71 107.99
  A 0.69 0.69 0.0 0 1 280.40 108.74
  L 280.23 110.62
  A 0.69 0.69 0.0 0 1 279.56 111.25
  L 277.05 111.29
  A 0.69 0.69 0.0 0 0 276.37 111.97
  Z"
/>
<path fill="#ff0303" d="
  M 294.82 111.99
  L 294.92 122.09
  A 0.61 0.61 0.0 0 1 294.31 122.71
  L 292.06 122.73
  Q 291.39 122.73 291.39 122.06
  L 291.25 111.74
  Q 291.25 111.23 290.74 111.24
  L 288.19 111.25
  Q 287.63 111.25 287.55 110.69
  L 287.29 108.78
  Q 287.18 107.99 287.98 107.99
  L 298.02 107.96
  Q 298.82 107.96 298.85 108.76
  L 298.92 110.59
  Q 298.95 111.53 298.02 111.39
  Q 296.55 111.15 295.35 111.36
  Q 294.82 111.45 294.82 111.99
  Z"
/>
<path fill="#ff0303" d="
  M 304.49 113.71
  L 309.75 113.71
  A 0.55 0.55 0.0 0 1 310.30 114.26
  L 310.30 116.30
  A 0.55 0.55 0.0 0 1 309.75 116.85
  L 304.57 116.80
  A 0.55 0.55 0.0 0 0 304.02 117.40
  L 304.12 118.71
  A 0.55 0.55 0.0 0 0 304.67 119.21
  L 310.20 119.15
  A 0.55 0.55 0.0 0 1 310.75 119.70
  L 310.73 122.12
  A 0.55 0.55 0.0 0 1 310.18 122.66
  L 300.96 122.69
  A 0.55 0.55 0.0 0 1 300.41 122.14
  L 300.48 108.47
  A 0.55 0.55 0.0 0 1 301.03 107.92
  L 310.17 107.93
  A 0.55 0.55 0.0 0 1 310.72 108.47
  L 310.74 110.84
  A 0.55 0.55 0.0 0 1 310.19 111.39
  L 304.60 111.32
  A 0.55 0.55 0.0 0 0 304.04 111.82
  L 303.94 113.12
  A 0.55 0.55 0.0 0 0 304.49 113.71
  Z"
/>
<path fill="#ff0303" d="
  M 316.24 119.04
  L 316.41 122.07
  Q 316.44 122.69 315.81 122.70
  L 313.03 122.71
  Q 312.58 122.71 312.58 122.26
  L 312.61 108.52
  Q 312.61 107.84 313.30 107.87
  Q 316.25 108.00 318.98 108.00
  C 321.83 107.99 324.04 110.51 323.91 113.32
  Q 323.75 116.71 320.47 118.10
  C 319.16 118.65 318.08 118.10 316.78 118.35
  Q 316.21 118.46 316.24 119.04
  Z
  M 316.25 112.01
  L 316.31 114.59
  A 0.73 0.73 0.0 0 0 317.06 115.30
  L 317.60 115.29
  A 2.83 1.89 -1.3 0 0 320.38 113.33
  L 320.38 113.07
  A 2.83 1.89 -1.3 0 0 317.50 111.25
  L 316.96 111.26
  A 0.73 0.73 0.0 0 0 316.25 112.01
  Z"
/>
<path fill="#ff0303" d="
  M 327.81 120.51
  L 327.46 122.05
  Q 327.33 122.66 326.70 122.67
  L 323.98 122.74
  Q 323.13 122.77 323.43 121.97
  Q 325.66 115.93 328.05 108.86
  Q 328.32 108.08 329.09 107.90
  Q 330.25 107.63 331.34 108.03
  Q 331.84 108.22 332.02 108.72
  L 336.80 122.00
  Q 337.08 122.79 336.25 122.75
  L 333.66 122.63
  Q 332.96 122.59 332.77 121.91
  L 332.35 120.32
  A 0.77 0.77 0.0 0 0 331.60 119.74
  L 328.75 119.75
  Q 327.98 119.75 327.81 120.51
  Z
  M 329.42 116.50
  L 330.80 116.48
  A 0.27 0.27 0.0 0 0 331.07 116.20
  L 331.07 116.07
  A 3.66 0.94 89.1 0 0 330.07 112.43
  L 330.03 112.43
  A 3.66 0.94 89.1 0 0 329.15 116.10
  L 329.15 116.23
  A 0.27 0.27 0.0 0 0 329.42 116.50
  Z"
/>
<path fill="#ff0303" d="
  M 343.03 111.89
  L 343.17 122.10
  A 0.55 0.55 0.0 0 1 342.64 122.66
  L 339.91 122.73
  A 0.55 0.55 0.0 0 1 339.34 122.18
  L 339.41 111.84
  A 0.55 0.55 0.0 0 0 338.83 111.28
  L 336.09 111.44
  A 0.55 0.55 0.0 0 1 335.51 110.87
  L 335.57 108.46
  A 0.55 0.55 0.0 0 1 336.12 107.92
  L 346.55 107.97
  A 0.55 0.55 0.0 0 1 347.09 108.50
  L 347.15 110.81
  A 0.55 0.55 0.0 0 1 346.60 111.37
  L 343.59 111.33
  A 0.55 0.55 0.0 0 0 343.03 111.89
  Z"
/>
<path fill="#ff0303" d="
  M 365.58 115.40
  Q 365.93 115.60 366.25 115.85
  Q 366.68 116.19 366.76 116.72
  Q 367.64 122.05 363.02 122.54
  Q 359.80 122.89 356.27 122.66
  Q 355.68 122.62 355.68 122.02
  L 355.72 108.50
  Q 355.72 107.90 356.33 107.89
  C 360.25 107.88 366.22 106.86 366.53 112.48
  Q 366.56 113.03 366.21 113.45
  L 365.40 114.43
  Q 364.92 115.02 365.58 115.40
  Z
  M 363.1318 112.3290
  A 1.18 1.18 0.0 0 0 362.0592 111.0507
  L 360.5649 110.9200
  A 1.18 1.18 0.0 0 0 359.2865 111.9926
  L 359.2482 112.4310
  A 1.18 1.18 0.0 0 0 360.3208 113.7093
  L 361.8151 113.8400
  A 1.18 1.18 0.0 0 0 363.0935 112.7674
  L 363.1318 112.3290
  Z
  M 359.37 116.99
  L 359.37 118.87
  A 0.70 0.70 0.0 0 0 360.08 119.57
  L 361.16 119.56
  A 2.32 1.45 -0.3 0 0 363.47 118.10
  L 363.47 117.72
  A 2.32 1.45 -0.3 0 0 361.14 116.28
  L 360.06 116.29
  A 0.70 0.70 0.0 0 0 359.37 116.99
  Z"
/>
<path fill="#ff0303" d="
  M 373.15 116.77
  Q 372.30 116.75 372.29 117.60
  L 372.27 118.38
  Q 372.26 119.25 373.13 119.23
  L 378.12 119.13
  Q 379.01 119.11 379.00 120.00
  L 378.99 121.98
  Q 378.98 122.69 378.27 122.69
  L 369.05 122.69
  A 0.40 0.40 0.0 0 1 368.65 122.29
  L 368.63 108.79
  Q 368.62 107.95 369.46 107.95
  L 378.08 107.96
  Q 378.94 107.96 379.00 108.82
  Q 379.08 109.96 378.86 110.82
  Q 378.71 111.43 378.08 111.41
  L 373.25 111.28
  A 0.98 0.97 0.6 0 0 372.25 112.25
  L 372.26 112.77
  A 1.00 1.00 0.0 0 0 373.27 113.77
  L 377.96 113.69
  Q 378.50 113.68 378.50 114.21
  L 378.53 116.30
  Q 378.54 116.90 377.94 116.88
  L 373.15 116.77
  Z"
/>
<path fill="#f15923" d="
  M 384.40 115.46
  L 384.62 122.03
  A 0.65 0.65 0.0 0 1 383.97 122.70
  L 381.50 122.69
  Q 380.81 122.69 380.81 122.00
  L 380.81 108.85
  Q 380.81 108.00 381.65 107.97
  L 383.57 107.89
  Q 384.28 107.86 384.65 108.46
  Q 386.76 111.84 388.33 115.18
  Q 389.84 118.40 389.24 114.90
  Q 388.72 111.79 388.80 108.41
  Q 388.81 108.02 389.20 108.00
  L 392.20 107.85
  A 0.37 0.37 0.0 0 1 392.59 108.22
  L 392.56 121.93
  Q 392.56 122.67 391.82 122.69
  L 389.59 122.72
  Q 388.82 122.74 388.46 122.05
  L 384.96 115.31
  Q 384.36 114.14 384.40 115.46
  Z"
/>
<path fill="#f15923" d="
  M 398.41 120.08
  L 397.79 122.27
  A 0.46 0.46 0.0 0 1 397.37 122.61
  L 394.27 122.76
  A 0.46 0.46 0.0 0 1 393.82 122.15
  L 398.69 108.22
  A 0.46 0.46 0.0 0 1 399.12 107.92
  L 401.79 107.89
  A 0.46 0.46 0.0 0 1 402.23 108.20
  L 407.23 122.11
  A 0.46 0.46 0.0 0 1 406.79 122.73
  L 403.78 122.67
  A 0.46 0.46 0.0 0 1 403.36 122.35
  L 402.59 120.05
  A 0.46 0.46 0.0 0 0 402.15 119.74
  L 398.85 119.74
  A 0.46 0.46 0.0 0 0 398.41 120.08
  Z
  M 400.48 112.80
  C 399.69 113.66 399.45 114.88 399.47 116.05
  Q 399.48 116.54 399.97 116.51
  L 401.12 116.45
  A 0.49 0.49 0.0 0 0 401.58 115.87
  L 401.06 112.97
  Q 400.94 112.31 400.48 112.80
  Z"
/>
<path fill="#f15923" d="
  M 412.17 119.27
  L 412.32 122.02
  A 0.60 0.60 0.0 0 1 411.73 122.66
  L 409.45 122.72
  A 0.89 0.89 0.0 0 1 408.53 121.83
  L 408.49 108.51
  Q 408.49 107.89 409.11 107.89
  Q 412.57 107.88 415.54 108.05
  C 419.73 108.29 420.96 112.80 419.09 116.01
  Q 418.82 116.47 418.39 116.79
  L 417.42 117.53
  Q 416.98 117.85 417.35 118.26
  L 419.91 121.10
  Q 421.69 123.07 419.05 122.76
  Q 418.15 122.65 417.20 122.75
  A 1.14 1.14 0.0 0 1 416.13 122.27
  L 413.64 118.76
  Q 412.01 116.46 412.17 119.27
  Z
  M 412.25 111.89
  L 412.18 114.11
  A 0.63 0.63 0.0 0 0 412.79 114.75
  L 414.25 114.80
  A 2.01 1.45 1.8 0 0 416.30 113.41
  L 416.32 112.83
  A 2.01 1.45 1.8 0 0 414.35 111.32
  L 412.90 111.28
  A 0.63 0.63 0.0 0 0 412.25 111.89
  Z"
/>
<path fill="#c319bf" d="
  M 249.45 118.84
  L 249.55 122.07
  A 0.62 0.61 -0.9 0 1 248.93 122.70
  L 246.48 122.69
  A 0.71 0.71 0.0 0 1 245.77 121.98
  L 245.77 108.57
  Q 245.77 107.88 246.45 107.93
  C 249.03 108.11 252.47 107.39 254.71 108.79
  C 259.92 112.05 256.18 119.68 250.25 118.20
  A 0.64 0.64 0.0 0 0 249.45 118.84
  Z
  M 249.47 111.84
  L 249.52 114.73
  A 0.55 0.55 0.0 0 0 250.08 115.28
  L 250.94 115.26
  A 2.60 1.75 -1.0 0 0 253.51 113.46
  L 253.51 112.96
  A 2.60 1.75 -1.0 0 0 250.88 111.26
  L 250.01 111.28
  A 0.55 0.55 0.0 0 0 249.47 111.84
  Z"
/>
</svg>
